<svg xmlns="http://www.w3.org/2000/svg" version="1.1" xmlns:xlink="http://www.w3.org/1999/xlink" xmlns:svgjs="http://svgjs.dev/svgjs" width="1000" height="623" viewBox="0 0 1000 623"><g transform="matrix(1,0,0,1,-0.6060606060606233,0.2522267206477409)"><svg viewBox="0 0 396 247" data-background-color="#ffffff" preserveAspectRatio="xMidYMid meet" height="623" width="1000" xmlns="http://www.w3.org/2000/svg" xmlns:xlink="http://www.w3.org/1999/xlink"><g id="tight-bounds" transform="matrix(1,0,0,1,0.2400000000000091,-0.09999999999999432)"><svg viewBox="0 0 395.52 247.2" height="247.2" width="395.52"><g><svg></svg></g><g><svg viewBox="0 0 395.52 247.2" height="247.2" width="395.52"><g transform="matrix(1,0,0,1,78.097692917847,47.215199999999996)"><svg viewBox="0 0 239.32461416430598 152.7696" height="152.7696" width="239.32461416430598"><g><svg viewBox="0 0 239.32461416430598 152.7696" height="152.7696" width="239.32461416430598"><g><svg viewBox="0 0 239.32461416430598 152.7696" height="152.7696" width="239.32461416430598"><g><svg viewBox="0 0 239.32461416430598 152.7696" height="152.7696" width="239.32461416430598"><g id="textblocktransform"><svg viewBox="0 0 239.32461416430598 152.7696" height="152.7696" width="239.32461416430598" id="textblock"><g><svg viewBox="0 0 239.32461416430598 152.7696" height="152.7696" width="239.32461416430598"><g transform="matrix(1,0,0,1,0,0)"><svg width="239.32461416430598" viewBox="2.5 -35 55.29999923706055 35.29999923706055" height="152.7696" data-palette-color="#ff0000"><path d="M12.05-12.05L12.05-0.7Q12.05 0.1 7.3 0.1L7.3 0.1Q2.5 0.1 2.5-0.65L2.5-0.65 2.5-33.25Q2.5-35 4.35-35L4.35-35 13.9-35Q27.05-35 27.05-24.75L27.05-24.75Q27.05-21.65 25.85-19.13 24.65-16.6 22.45-15.1L22.45-15.1 28.75-4.6Q28.35-3.4 26.15-1.85L26.15-1.85Q23.15 0.3 21.2 0.3 19.25 0.3 18.3-1.1L18.3-1.1 13.6-12.05 12.05-12.05ZM13.1-26.15L12.05-26.15 12.05-18.65 12.3-18.65Q17.05-18.65 17.05-22.6L17.05-22.6Q17.05-24.4 16.13-25.28 15.2-26.15 13.1-26.15L13.1-26.15ZM56.55-25.95L56.55-25.95Q56.55-20.75 52.05-18.05L52.05-18.05Q54.5-17.15 56.15-14.95 57.8-12.75 57.8-8.72 57.8-4.7 54.82-2.35 51.85 0 46.3 0L46.3 0 34.5 0Q33.65 0 33.1-0.58 32.55-1.15 32.55-2.1L32.55-2.1 32.55-34.1Q32.55-34.65 32.72-34.83 32.9-35 33.45-35L33.45-35 44.85-35Q56.55-35 56.55-25.95ZM43.2-26.9L42.15-26.9 42.15-20.35 42.4-20.35Q47.2-20.35 47.2-23.55L47.2-23.55Q47.2-25.3 46.27-26.1 45.35-26.9 43.2-26.9L43.2-26.9ZM43.2-14.45L42.15-14.45 42.15-7.95 43.05-7.95Q45.2-7.95 46.2-8.75 47.2-9.55 47.2-11.3 47.2-13.05 46.27-13.75 45.35-14.45 43.2-14.45L43.2-14.45Z" opacity="1" transform="matrix(1,0,0,1,0,0)" fill="#ff0000" class="wordmark-text-0" data-fill-palette-color="primary" id="text-0"></path></svg></g></svg></g></svg></g></svg></g></svg></g></svg></g></svg></g><g><path d="M0 123.6c0-68.262 55.338-123.6 123.6-123.6 30.402 0 58.24 10.976 79.768 29.183l-11.147 0c-19.26-14.022-42.974-22.294-68.621-22.295-64.458 0-116.712 52.254-116.712 116.712 0 64.458 52.254 116.712 116.712 116.712 25.647 0 49.361-8.272 68.621-22.295l11.147 0c-21.528 18.206-49.366 29.183-79.768 29.183-68.262 0-123.6-55.338-123.6-123.6z" fill="#fe1e10" stroke="transparent" data-fill-palette-color="tertiary"></path></g></svg></g><defs></defs></svg><rect width="395.52" height="247.2" fill="none" stroke="none" visibility="hidden"></rect></g></svg></g></svg>